<?xml version="1.0" encoding="UTF-8"?>
<svg id="Calque_1" xmlns="http://www.w3.org/2000/svg" xmlns:xlink="http://www.w3.org/1999/xlink" version="1.1" viewBox="0 0 64 64">
  <!-- Generator: Adobe Illustrator 30.0.0, SVG Export Plug-In . SVG Version: 2.1.1 Build 123)  -->
  <defs>
    <style>
      .st0 {
        fill: url(#Dégradé_sans_nom_4);
      }

      .st1 {
        fill: #ebebeb;
      }

      .st2 {
        fill: #459cba;
      }

      .st3, .st4 {
        fill: #fff;
      }

      .st5 {
        fill: url(#Dégradé_sans_nom);
      }

      .st6 {
        fill: #134489;
        fill-rule: evenodd;
      }

      .st4 {
        isolation: isolate;
        opacity: .22;
      }
    </style>
    <linearGradient id="Dégradé_sans_nom" data-name="Dégradé sans nom" x1="31.96" y1="64.02" x2="31.96" y2=".81" gradientTransform="translate(0 64) scale(1 -1)" gradientUnits="userSpaceOnUse">
      <stop offset="0" stop-color="#7bb5d6"/>
      <stop offset="1" stop-color="#3b92b9"/>
    </linearGradient>
    <linearGradient id="Dégradé_sans_nom_4" data-name="Dégradé sans nom 4" x1="46.54" y1="29.97" x2="46.54" y2="63.66" gradientUnits="userSpaceOnUse">
      <stop offset="0" stop-color="#f2f4f4"/>
      <stop offset="1" stop-color="#e8e8e8"/>
    </linearGradient>
  </defs>
  <g>
    <path class="st2" d="M59.6,63.87H4.31c-2.33,0-4.22-1.89-4.22-4.22V4.36C.09,2.03,1.98.14,4.31.14h55.28c2.33,0,4.22,1.89,4.22,4.22v55.28c0,2.33-1.89,4.22-4.22,4.22ZM4.31.66C2.27.66.61,2.32.61,4.36v55.28c0,2.04,1.66,3.71,3.71,3.71h55.28c2.04,0,3.71-1.66,3.71-3.71V4.36c0-2.04-1.66-3.71-3.71-3.71,0,0-55.28,0-55.28,0Z"/>
    <rect class="st5" x=".35" y=".43" width="63.21" height="63.21" rx="3.97" ry="3.97"/>
    <path class="st4" d="M63.51,3.72s-1.32-2.57-3.46-2.55c-1.35,0-55.85-.04-55.85-.04,0,0-3.04.32-3.86,2.65C.92,1.45,2.84.45,4.31.42s55.54.03,55.54.03c0,0,3.17.17,3.66,3.27h0Z"/>
    <path class="st3" d="M32.8,30.49v4.1l15.53,7.39v-18.89s-15.53,7.39-15.53,7.39ZM31.07,30.51l-15.53-7.39v18.86l15.53-7.39v-4.06h0ZM32.8,50.04l14.23-6.76-14.23-6.77v13.54ZM31.07,50.04v-13.56l-14.25,6.78,14.25,6.77ZM31.07,15.06l-14.15,6.8,14.15,6.73v-13.54ZM32.8,15.11v13.47l14.12-6.72s-14.12-6.74-14.12-6.74ZM51.78,20.36v24.48l-19.84,9.43-19.84-9.43v-24.47l19.78-9.51,19.91,9.51h0Z"/>
  </g>
  <g>
    <path class="st1" d="M59.68,63.89h-30.13v-.52h30.09s1.78.05,2.91-1.42c.81-1.01.76-2.2.76-2.21v-29.74h.52v29.74s.06,1.37-.87,2.53c-1.19,1.55-2.94,1.62-3.28,1.62Z"/>
    <path class="st0" d="M59.59,63.65h-30.05s-.69-12.53,10.36-24.09c10.68-10.76,21.84-9.55,23.65-9.55-.04,18.79-.07,29.69-.07,29.69,0,0,0,1.27-.83,2.39-1.13,1.51-3.05,1.57-3.05,1.57h-.01Z"/>
    <path id="path-8" class="st6" d="M46.79,53.1h1.56c.69,0,1.02-.25,1.17-.25.13,0,.23.1.23.31,0,.23-.25,1.27-.43,1.6-.13.23-.25.33-.69.33h-1.83c0,.52.02.88.03,1.06.02.64.14,1.65.34,1.93.33.48,1.34,1.02,3.35,1.02,2.59,0,4.32-.51,5.85-1.83,1.63-1.4,2.14-3.71,2.14-6.33,0-3.23-1.35-5.32-2.44-6.36-2.34-2.24-5.24-2.54-7.22-2.54-.51,0-1.53.08-1.73.18-.23.1-.32.23-.32.51v10.39h0v-.02h0ZM43.7,45.24c-.58.74-5.78,6.71-6.64,7.86h5.83v1.98h-7.9c-.31,0-.64-.1-.64-.38,0-.31.23-.53.33-.66.18-.2,10.51-12.6,10.73-12.85.41-.47.58-.58.86-.57.43.02.37.34,1.05.26.06,0,.92-.06,1.92-.06,3.18,0,7.43,0,10.2,2.9,1.27,1.32,2.47,3.43,2.47,6.46,0,3.2-1.35,5.65-2.77,7.1-1.17,1.2-3.82,2.87-8.53,2.87h-9.24c-.28,0-.36-.11-.36-.29s.08-.33.2-.33c.23,0,.79-.02,1.2-.08.97-.1,1.15-.5,1.2-1.29.08-1.38.08-3.07.08-3.07v-9.85h0Z"/>
  </g>
</svg>